<?xml version="1.0" encoding="UTF-8" standalone="no"?>
<!-- Created with Inkscape (http://www.inkscape.org/) -->

<svg
   xmlns:dc="http://purl.org/dc/elements/1.1/"
   xmlns:cc="http://creativecommons.org/ns#"
   xmlns:rdf="http://www.w3.org/1999/02/22-rdf-syntax-ns#"
   xmlns:svg="http://www.w3.org/2000/svg"
   xmlns="http://www.w3.org/2000/svg"
   xmlns:sodipodi="http://sodipodi.sourceforge.net/DTD/sodipodi-0.dtd"
   xmlns:inkscape="http://www.inkscape.org/namespaces/inkscape"
   width="100"
   height="100"
   id="svg3908"
   version="1.1"
   inkscape:version="0.48.2 r9819"
   sodipodi:docname="cog.svg">
  <defs
     id="defs3910" />
  <sodipodi:namedview
     id="base"
     pagecolor="#ffffff"
     bordercolor="#666666"
     borderopacity="1.0"
     inkscape:pageopacity="0.0"
     inkscape:pageshadow="2"
     inkscape:zoom="0.35"
     inkscape:cx="350"
     inkscape:cy="520"
     inkscape:document-units="px"
     inkscape:current-layer="layer1"
     showgrid="false"
     inkscape:window-width="1524"
     inkscape:window-height="878"
     inkscape:window-x="68"
     inkscape:window-y="-8"
     inkscape:window-maximized="1" />
  <metadata
     id="metadata3913">
    <rdf:RDF>
      <cc:Work
         rdf:about="">
        <dc:format>image/svg+xml</dc:format>
        <dc:type
           rdf:resource="http://purl.org/dc/dcmitype/StillImage" />
        <dc:title></dc:title>
      </cc:Work>
    </rdf:RDF>
  </metadata>
  <g
     inkscape:label="Ebene 1"
     inkscape:groupmode="layer"
     id="layer1"
     transform="translate(0,-952.36217)">
    <g
       transform="matrix(1.0623053,0,0,1.0623053,-273.66283,584.64473)"
       id="g3859">
      <path
         inkscape:connector-curvature="0"
         id="path3810"
         d="M 249,301.875 238.875,305.875 239.96875,324.40625 220.34375,320.9375 216.0625,330.9375 229.90625,343.25 213.625,354.65625 217.65625,364.75 236.125,363.65625 232.6875,383.25 242.6875,387.53125 255,373.6875 266.40625,389.96875 276.5,385.9375 275.40625,367.46875 295,370.9375 299.28125,360.9375 285.4375,348.625 301.75,337.21875 297.71875,327.125 279.21875,328.21875 282.6875,308.625 272.6875,304.3125 260.375,318.15625 249,301.875 z M 257.625,322.6875 C 270.57747,322.6875 281.0625,333.20378 281.0625,346.15625 281.0625,359.10872 270.57747,369.59375 257.625,369.59375 244.67253,369.59375 234.15625,359.10872 234.15625,346.15625 234.15625,333.20378 244.67253,322.6875 257.625,322.6875 z"
         style="fill:#ffffff;stroke:none" />
      <path
         sodipodi:type="arc"
         style="fill:none;stroke:#ffffff;stroke-width:0.75807905"
         id="path3843"
         sodipodi:cx="259.82144"
         sodipodi:cy="348.61218"
         sodipodi:rx="18.035715"
         sodipodi:ry="18.035715"
         d="M 277.85716,348.61218 C 277.85716,358.57303 269.78229,366.6479 259.82144,366.6479 249.86059,366.6479 241.78573,358.57303 241.78573,348.61218 241.78573,338.65133 249.86059,330.57647 259.82144,330.57647 269.78229,330.57647 277.85716,338.65133 277.85716,348.61218 z"
         transform="matrix(2.5559639,0,0,2.5559639,-406.482,-544.88972)" />
    </g>
  </g>
</svg>
