<?xml version="1.0" encoding="UTF-8" standalone="no"?>
<!-- Created with Inkscape (http://www.inkscape.org/) -->

<svg
   xmlns:dc="http://purl.org/dc/elements/1.1/"
   xmlns:cc="http://creativecommons.org/ns#"
   xmlns:rdf="http://www.w3.org/1999/02/22-rdf-syntax-ns#"
   xmlns:svg="http://www.w3.org/2000/svg"
   xmlns="http://www.w3.org/2000/svg"
   xmlns:xlink="http://www.w3.org/1999/xlink"
   xmlns:sodipodi="http://sodipodi.sourceforge.net/DTD/sodipodi-0.dtd"
   xmlns:inkscape="http://www.inkscape.org/namespaces/inkscape"
   width="210mm"
   height="297mm"
   id="svg2"
   version="1.1"
   inkscape:version="0.48.2 r9819"
   sodipodi:docname="logo.svg"
   inkscape:export-filename="D:\Projects\nl-invi\data\forever\logo.png"
   inkscape:export-xdpi="65"
   inkscape:export-ydpi="65">
  <defs
     id="defs4" />
  <sodipodi:namedview
     id="base"
     pagecolor="#bebebe"
     bordercolor="#666666"
     borderopacity="1.0"
     inkscape:pageopacity="1"
     inkscape:pageshadow="2"
     inkscape:zoom="0.98994949"
     inkscape:cx="371.5116"
     inkscape:cy="850.89389"
     inkscape:document-units="px"
     inkscape:current-layer="layer1"
     showgrid="false"
     inkscape:window-width="1524"
     inkscape:window-height="878"
     inkscape:window-x="68"
     inkscape:window-y="-8"
     inkscape:window-maximized="1" />
  <metadata
     id="metadata7">
    <rdf:RDF>
      <cc:Work
         rdf:about="">
        <dc:format>image/svg+xml</dc:format>
        <dc:type
           rdf:resource="http://purl.org/dc/dcmitype/StillImage" />
        <dc:title />
      </cc:Work>
    </rdf:RDF>
  </metadata>
  <g
     inkscape:label="Ebene 1"
     inkscape:groupmode="layer"
     id="layer1">
    <g
       id="g3942"
       transform="translate(46,0)"
       inkscape:export-filename="D:\Projects\nl-invi\data\forever\logo.png"
       inkscape:export-xdpi="65.113365"
       inkscape:export-ydpi="65.113365">
      <rect
         y="305.70132"
         x="-61"
         height="31.428572"
         width="785.71423"
         id="rect3027"
         style="fill:#0dbfbf;fill-opacity:1;stroke:none" />
      <rect
         style="fill:#12c00f;fill-opacity:1;stroke:none"
         id="rect3797"
         width="785.71423"
         height="31.428572"
         x="-61"
         y="334.94373" />
      <rect
         y="364.94373"
         x="-61"
         height="31.428572"
         width="785.71423"
         id="rect3799"
         style="fill:#1113c0;fill-opacity:1;stroke:none" />
    </g>
    <g
       id="g3017"
       transform="matrix(0.51622086,0,0,0.51622086,288.37087,167.4447)"
       style="fill:#bebbbb;fill-opacity:1"
       inkscape:export-filename="D:\Projects\nl-invi\data\forever\logo.png"
       inkscape:export-xdpi="65.113365"
       inkscape:export-ydpi="65.113365">
      <path
         d="M 61.402249,264.44042 C 77.864749,263.05292 94.439749,263.39042 110.93975,263.76542 117.28975,264.01542 123.76475,266.81542 127.53975,272.09042 137.11475,282.65292 140.41475,297.31542 140.80225,311.20292 140.85225,326.71542 130.41475,340.00292 118.32725,348.65292 115.26475,351.70292 110.33975,353.52792 108.96475,357.96542 107.66475,370.24042 107.96475,382.64042 108.87725,394.92792 110.63975,408.30292 115.00225,421.34042 115.60225,434.85292 113.75225,445.82792 95.077249,447.65292 92.164749,436.25292 83.377249,413.35292 83.214749,387.94042 83.214749,363.72792 74.589749,363.72792 65.964749,363.74042 57.352249,363.81542 52.489749,385.37792 47.864749,406.99042 43.227249,428.59042 42.039749,434.55292 39.014749,441.20292 32.902249,443.32792 24.002249,446.71542 14.939749,437.35292 16.927249,428.61542 22.902249,397.39042 31.952249,366.74042 36.264749,335.17792 39.264749,317.56542 42.814749,300.04042 46.052249,282.46542 47.139749,274.39042 52.564749,265.24042 61.402249,264.44042 M 70.002249,293.95292 C 67.652249,308.34042 63.839749,322.45292 61.914749,336.91542 78.114749,336.97792 96.152249,335.89042 108.25225,323.64042 114.36475,317.40292 113.55225,308.07792 113.82725,300.07792 109.11475,297.59042 104.85225,293.72792 99.452249,292.87792 89.614749,292.35292 79.814749,293.37792 70.002249,293.95292 z"
         id="path5"
         inkscape:connector-curvature="0"
         style="fill:#bebbbb;fill-opacity:1" />
      <path
         d="M 586.27727,267.86542 C 591.53977,261.85292 603.17727,263.29042 606.31477,270.80292 608.50227,280.12792 604.58977,289.22792 602.87727,298.25292 600.40227,307.86542 598.77727,317.65292 597.25227,327.45292 613.77727,327.50292 630.30227,327.51542 646.85227,327.44042 648.10227,317.41542 649.86477,307.45292 652.02727,297.57792 654.21477,287.81542 655.46477,277.47792 661.15227,268.94042 668.35227,260.37792 684.93977,267.25292 681.91477,278.76542 680.51477,293.95292 674.71477,308.45292 673.11477,323.66542 665.73977,360.67792 659.11477,397.84042 651.91477,434.87792 650.12727,444.72792 636.05227,449.11542 629.61477,441.24042 623.52727,434.06542 628.60227,424.19042 629.53977,416.25292 634.35227,395.14042 636.05227,373.35292 642.10227,352.52792 625.48977,352.47792 608.87727,352.45292 592.26477,352.55292 587.52727,377.52792 582.77727,402.49042 578.31475,427.51542 577.51475,433.27792 575.40225,439.80292 569.93975,442.76542 564.63975,444.96542 557.42725,444.45292 554.05225,439.29042 548.96475,432.41542 553.42725,423.50292 554.31475,416.15292 561.33975,376.77792 569.26475,337.60292 576.63975,298.29042 579.02725,287.94042 579.97725,276.80292 586.27727,267.86542 z"
         id="path7"
         inkscape:connector-curvature="0"
         style="fill:#bebbbb;fill-opacity:1" />
      <path
         d="M -383.72275,269.11542 C -378.61025,263.37792 -367.83525,264.25292 -364.18525,271.31542 -359.77275,276.56542 -359.41025,283.62792 -357.54775,289.92792 -351.01025,313.37792 -346.51025,337.39042 -338.34775,360.37792 -331.91025,378.50292 -325.31025,396.60292 -317.77275,414.31542 -310.69775,376.31542 -303.18525,338.42792 -296.04775,300.44042 -293.58525,289.74042 -292.53525,278.34042 -286.34775,268.94042 -281.89775,265.07792 -275.28525,263.21542 -270.33525,267.44042 -263.71025,270.64042 -265.36025,279.15292 -266.31025,285.14042 -273.61025,313.57792 -277.26025,342.76542 -283.81025,371.37792 -286.82275,390.59042 -290.98525,409.57792 -294.18525,428.76542 -294.79775,436.56542 -299.73525,446.19042 -309.09775,445.04042 -315.66025,445.07792 -323.62275,448.41542 -329.42275,444.05292 -335.33525,437.00292 -340.07275,428.91542 -343.26025,420.26542 -354.04775,391.14042 -366.02275,362.34042 -373.33525,332.07792 -380.09775,364.17792 -385.78525,396.49042 -391.68525,428.76542 -392.44775,432.84042 -393.29775,437.24042 -396.02275,440.54042 -400.69775,447.12792 -412.38525,446.94042 -416.44775,439.81542 -420.59775,433.27792 -416.77275,425.32792 -415.89775,418.51542 -408.63525,378.12792 -400.61025,337.90292 -392.94775,297.59042 -390.78525,287.86542 -389.66025,277.47792 -383.72275,269.11542 z"
         id="path9"
         inkscape:connector-curvature="0"
         style="fill:#bebbbb;fill-opacity:1" />
      <path
         d="M 173.92725,265.59042 C 180.53975,263.04042 185.31475,268.89042 190.45225,271.67792 206.81475,284.04042 222.11475,298.80292 230.92725,317.61542 239.86475,334.32792 239.61475,354.10292 239.78975,372.51542 240.86475,401.19042 221.11475,430.75292 192.83975,438.06542 178.76475,442.34042 164.35225,446.02792 149.63975,447.00292 141.78975,446.65292 132.23975,441.59042 132.86475,432.52792 136.26475,411.79042 140.91475,391.22792 144.05225,370.42792 150.72725,340.79042 154.91475,310.64042 161.97725,281.07792 164.02725,274.87792 166.51475,266.76542 173.92725,265.59042 M 183.96475,299.52792 C 181.90225,308.54042 179.66475,317.50292 178.55225,326.69042 173.22725,357.94042 166.23975,388.87792 160.82725,420.11542 170.38975,417.77792 179.95225,415.37792 189.25225,412.14042 198.42725,408.80292 206.03975,401.59042 209.58975,392.46542 217.13975,379.60292 214.76475,364.07792 213.66475,349.91542 211.78975,329.72792 199.88975,311.65292 183.96475,299.52792 z"
         id="path11"
         inkscape:connector-curvature="0"
         style="fill:#bebbbb;fill-opacity:1" />
      <path
         d="M 708.88977,265.66542 C 735.77727,264.06542 762.76477,265.16542 789.70227,264.96542 796.30227,264.51542 805.18977,266.29042 807.22727,273.69042 810.53977,279.59042 805.96477,286.91542 800.32727,289.26542 786.87727,290.69042 773.33977,289.99042 759.85227,290.05292 751.43977,329.25292 744.67727,368.77792 736.96477,408.11542 734.88977,418.16542 734.60227,428.85292 730.46477,438.31542 727.10227,445.79042 715.83977,447.75292 710.21477,441.91542 707.32727,439.07792 706.20227,434.81542 706.75227,430.86542 715.51477,384.01542 724.16477,337.15292 733.62727,290.42792 724.36477,289.19042 713.56477,292.42792 705.35227,286.81542 697.67727,281.77792 699.78977,267.71542 708.88977,265.66542 z"
         id="path13"
         inkscape:connector-curvature="0"
         style="fill:#bebbbb;fill-opacity:1" />
      <path
         d="M 277.52725,270.36542 C 282.43975,264.81542 292.51475,265.61542 296.73975,271.64042 298.92725,275.14042 298.20225,279.57792 297.93975,283.51542 287.73975,328.75292 280.15225,374.54042 271.17725,420.02792 291.91475,420.16542 312.65225,419.44042 333.38975,420.17792 338.67725,420.60292 344.91475,421.94042 347.43975,427.17792 351.15225,434.39042 346.97725,443.84042 339.11475,445.50292 310.16475,447.09042 281.10225,446.32792 252.12725,446.04042 246.05225,445.35292 242.28975,438.67792 242.91475,432.94042 250.93975,388.50292 259.61475,344.20292 268.08975,299.84042 270.36475,289.80292 271.40225,279.01542 277.52725,270.36542 z"
         id="path15"
         inkscape:connector-curvature="0"
         style="fill:#bebbbb;fill-opacity:1" />
      <path
         d="M 395.15225,266.86542 C 400.58975,265.75292 407.60225,268.46542 409.10225,274.22792 410.67725,286.49042 405.22725,298.09042 403.27725,309.97792 396.03975,350.02792 387.80225,389.90292 380.81475,430.01542 380.13975,437.72792 375.23975,447.74042 365.82725,446.34042 358.73975,447.05292 353.33975,439.56542 354.16475,432.94042 362.18975,388.50292 370.86475,344.20292 379.33975,299.84042 381.46475,290.62792 382.41475,280.87792 387.35225,272.60292 388.70225,269.44042 391.87725,267.49042 395.15225,266.86542 z"
         id="path17"
         inkscape:connector-curvature="0"
         style="fill:#bebbbb;fill-opacity:1" />
      <path
         d="M 488.92725,270.67792 C 508.57725,267.79042 531.42725,269.96542 546.20225,284.67792 553.52725,293.84042 543.00225,307.84042 532.15225,304.95292 522.98975,303.27792 515.67725,295.62792 505.85225,296.34042 492.37725,293.86542 481.27725,304.19042 473.23975,313.60292 460.73975,327.36542 454.10225,345.27792 450.15225,363.17792 446.93975,376.02792 445.58975,389.30292 445.86475,402.54042 445.88975,408.92792 450.76475,414.70292 456.71475,416.65292 462.98975,417.80292 469.31475,417.97792 475.68975,417.17792 484.55225,415.24042 491.20225,407.05292 500.77725,407.56542 507.53975,409.75292 513.21475,417.21542 510.50225,424.59042 504.02725,436.57792 490.36475,442.96542 477.11475,443.47792 464.58975,443.97792 450.92725,445.25292 439.56475,438.87792 430.51475,434.81542 424.98975,425.65292 421.72725,416.66542 417.57725,396.72792 419.07725,375.77792 424.36475,356.17792 429.95225,332.71542 439.28975,309.30292 456.41475,291.77792 465.60225,282.61542 475.18975,272.25292 488.92725,270.67792 z"
         id="path19"
         inkscape:connector-curvature="0"
         style="fill:#bebbbb;fill-opacity:1" />
    </g>
    <path
       sodipodi:type="star"
       style="fill:#c1120f;fill-opacity:1;stroke:#bebebe;stroke-width:13.59610558;stroke-linejoin:round;stroke-miterlimit:4;stroke-opacity:1;stroke-dasharray:none"
       id="path3808"
       sodipodi:sides="6"
       sodipodi:cx="257.85715"
       sodipodi:cy="346.29074"
       sodipodi:r1="85.598885"
       sodipodi:r2="27.498726"
       sodipodi:arg1="-0.075171893"
       sodipodi:arg2="0.041272891"
       inkscape:flatsided="true"
       inkscape:rounded="0"
       inkscape:randomized="0"
       d="M 343.21429,339.86217 306.10303,416.99791 220.74588,423.42648 172.5,352.71931 209.61127,275.58357 294.96841,269.155 z"
       transform="matrix(0.72496506,-0.13760609,0.13666362,0.72025744,-11.795937,131.91115)"
       inkscape:export-filename="D:\Projects\nl-invi\data\forever\logo.png"
       inkscape:export-xdpi="65.113365"
       inkscape:export-ydpi="65.113365" />
    <g
       id="g3947">
      <path
         inkscape:export-ydpi="65.113365"
         inkscape:export-xdpi="65.113365"
         inkscape:export-filename="D:\Projects\nl-invi\data\forever\logo.png"
         id="path3810"
         d="M 213,301.875 202.875,305.875 203.96875,324.40625 184.34375,320.9375 180.0625,330.9375 193.90625,343.25 177.625,354.65625 181.65625,364.75 200.125,363.65625 196.6875,383.25 206.6875,387.53125 219,373.6875 230.40625,389.96875 240.5,385.9375 239.40625,367.46875 259,370.9375 263.28125,360.9375 249.4375,348.625 265.75,337.21875 261.71875,327.125 243.21875,328.21875 246.6875,308.625 236.6875,304.3125 224.375,318.15625 213,301.875 z M 221.625,322.6875 C 234.57747,322.6875 245.0625,333.20378 245.0625,346.15625 245.0625,359.10872 234.57747,369.59375 221.625,369.59375 208.67253,369.59375 198.15625,359.10872 198.15625,346.15625 198.15625,333.20378 208.67253,322.6875 221.625,322.6875 z"
         style="fill:#bebebe;fill-opacity:1;stroke:none"
         inkscape:connector-curvature="0" />
      <path
         inkscape:export-ydpi="65.113365"
         inkscape:export-xdpi="65.113365"
         inkscape:export-filename="D:\Projects\nl-invi\data\forever\logo.png"
         sodipodi:type="arc"
         style="fill:none;stroke:#ffffff;stroke-width:0.75807905"
         id="path3843"
         sodipodi:cx="259.82144"
         sodipodi:cy="348.61218"
         sodipodi:rx="18.035715"
         sodipodi:ry="18.035715"
         d="M 277.85716,348.61218 C 277.85716,358.57303 269.78229,366.6479 259.82144,366.6479 249.86059,366.6479 241.78573,358.57303 241.78573,348.61218 241.78573,338.65133 249.86059,330.57647 259.82144,330.57647 269.78229,330.57647 277.85716,338.65133 277.85716,348.61218 z"
         transform="matrix(2.5559639,0,0,2.5559639,-442.482,-544.88972)" />
    </g>
    <path
       sodipodi:type="arc"
       style="fill:none;stroke:#bebebe;stroke-width:3.06477332;stroke-opacity:1"
       id="path3854"
       sodipodi:cx="259.82144"
       sodipodi:cy="348.61218"
       sodipodi:rx="18.035715"
       sodipodi:ry="18.035715"
       d="M 277.85716,348.61218 A 18.035715,18.035715 0 1 1 241.78573,348.61218 18.035715,18.035715 0 1 1 277.85716,348.61218 z"
       transform="matrix(0.97886519,0,0,0.97886519,-32.71794,4.9061023)"
       inkscape:export-filename="D:\Projects\nl-invi\data\forever\logo.png"
       inkscape:export-xdpi="65.113365"
       inkscape:export-ydpi="65.113365" />
    <image
       y="505.38754"
       x="-599.98981"
       id="image3935"
       xlink:href="file:///D:/Projects/nl-invi/ideas/Clipboard06.jpg"
       height="900"
       width="1600"
       style="fill:#bebebe;fill-opacity:1" />
    <g
       id="g3023">
      <path
         id="path4030"
         d="M 237.3125 124.75 L 181.90625 139.625 L 167.0625 194.71875 L 207.625 234.96875 L 263.03125 220.0625 L 277.875 165 L 237.3125 124.75 z M 221.59375 160.96875 C 232.15474 160.96875 240.75 169.59526 240.75 180.15625 C 240.75 190.71723 232.15474 199.3125 221.59375 199.3125 C 211.03277 199.3125 202.46875 190.71723 202.46875 180.15625 C 202.46875 169.59526 211.03277 160.96875 221.59375 160.96875 z M 221.59375 163.96875 C 212.65408 163.96875 205.4375 171.21657 205.4375 180.15625 C 205.4375 189.09592 212.65408 196.3125 221.59375 196.3125 C 230.53342 196.3125 237.75 189.09592 237.75 180.15625 C 237.75 171.21657 230.53342 163.96875 221.59375 163.96875 z "
         style="fill:#c1120f;fill-opacity:1;stroke:none;stroke-width:13.59610558000000000;stroke-linejoin:round;stroke-miterlimit:4;stroke-opacity:1;stroke-dasharray:none" />
      <path
         id="rect4006"
         d="M 53.53125 139.6875 L 53.53125 171.125 L 82.4375 171.125 C 83.469707 165.77348 84.51358 160.41648 85.53125 155.0625 C 86.647577 150.04225 87.216189 144.6919 90.28125 140.375 C 90.516087 140.11145 90.785909 139.8973 91.0625 139.6875 L 53.53125 139.6875 z M 98.84375 139.6875 C 99.466836 140.15981 99.996158 140.76697 100.375 141.5 C 102.65282 144.21016 102.85104 147.87281 103.8125 151.125 C 105.662 157.75916 107.20564 164.45783 108.90625 171.125 L 132.75 171.125 C 133.6802 166.25868 134.61597 161.40258 135.53125 156.53125 C 136.80244 151.00769 137.36838 145.13373 140.5625 140.28125 C 140.80901 140.06728 141.07437 139.87595 141.34375 139.6875 L 98.84375 139.6875 z M 149.125 139.6875 C 152.16318 141.45554 151.38038 145.63673 150.90625 148.625 C 148.9982 156.0579 147.5677 163.57892 146.1875 171.125 L 163.0625 171.125 L 171.53125 139.6875 L 149.125 139.6875 z M 266.625 139.6875 L 287.03125 159.9375 C 288.24733 161.17123 288.75271 163.0695 288.3125 164.75 L 286.59375 171.125 L 307.6875 171.125 C 309.1033 163.15582 310.69002 155.20957 312.15625 147.25 C 312.52758 144.49279 313.87536 141.51532 316.0625 139.6875 L 266.625 139.6875 z M 351.9375 139.6875 C 352.80358 140.2985 353.59432 141.0337 354.21875 141.90625 C 359.16156 147.35883 360.86246 154.92473 361.0625 162.09375 C 361.07289 165.31817 360.19569 168.35215 358.75 171.125 L 367 171.125 C 368.52682 162.90308 370.05645 154.66663 372 146.53125 C 372.78429 144.15925 373.68447 141.27688 375.65625 139.6875 L 351.9375 139.6875 z M 383.6875 139.6875 C 384.70329 140.36539 385.68336 141.14267 386.6875 141.6875 C 395.13417 148.06928 403.04456 155.69484 407.59375 165.40625 C 408.57925 167.24906 409.33732 169.15996 409.9375 171.125 L 423.90625 171.125 C 424.85887 166.15671 425.80062 161.18831 426.75 156.21875 C 427.9244 151.03718 428.46314 145.46531 431.625 141 C 432.12612 140.43385 432.73559 139.99756 433.40625 139.6875 L 383.6875 139.6875 z M 439.125 139.6875 C 440.0887 140.11703 440.94908 140.7815 441.5625 141.65625 C 442.69173 143.46302 442.32301 145.77988 442.1875 147.8125 C 440.44148 155.55619 438.8414 163.33514 437.3125 171.125 L 481.3125 171.125 C 482.26764 166.15562 483.23791 161.1894 484.1875 156.21875 C 485.28447 151.46306 485.79491 146.42798 488.34375 142.15625 C 488.83739 140.99987 489.79148 140.18804 490.90625 139.6875 L 439.125 139.6875 z M 496.46875 139.6875 C 497.93911 140.31406 499.1513 141.42031 499.5625 143 C 500.37554 149.33016 497.56913 155.33217 496.5625 161.46875 C 495.98072 164.68815 495.38361 167.90905 494.78125 171.125 L 511.90625 171.125 C 514.76801 164.1049 518.6287 157.52728 523.96875 152.0625 C 528.71153 147.33263 533.65841 142.00055 540.75 141.1875 C 543.28593 140.81485 545.94227 140.57943 548.59375 140.59375 C 556.54819 140.6367 564.62337 142.71008 570.34375 148.40625 C 574.12506 153.13612 568.69475 160.36559 563.09375 158.875 C 558.36388 158.01033 554.57187 154.03844 549.5 154.40625 C 542.54393 153.1286 536.80538 158.48482 532.65625 163.34375 C 530.49363 165.72479 528.66767 168.34327 527.125 171.125 L 583.03125 171.125 C 584.03493 165.90106 585.05004 160.66782 586.03125 155.4375 C 587.26372 150.09461 587.77904 144.33247 591.03125 139.71875 C 591.04105 139.70756 591.05262 139.69859 591.0625 139.6875 L 496.46875 139.6875 z M 600.34375 139.6875 C 600.76897 140.13214 601.12774 140.65795 601.375 141.25 C 602.50424 146.06376 600.47778 150.74736 599.59375 155.40625 C 598.31611 160.36842 597.47474 165.40978 596.6875 170.46875 C 605.21805 170.49456 613.73779 170.50746 622.28125 170.46875 C 622.92652 165.29363 623.85242 160.16018 624.96875 155.0625 C 626.09798 150.02289 626.72025 144.68849 629.65625 140.28125 C 629.83814 140.06493 630.04664 139.86634 630.25 139.6875 L 600.34375 139.6875 z M 638.28125 139.6875 C 639.97469 140.93698 641.00721 142.9377 640.375 145.34375 C 639.65229 153.18386 636.6697 160.67824 635.84375 168.53125 C 635.67168 169.39482 635.51428 170.26114 635.34375 171.125 L 663.1875 171.125 C 664.46764 164.5348 665.76103 157.95586 667.09375 151.375 C 662.31225 150.73618 656.73946 152.39729 652.5 149.5 C 649.23508 147.35707 649.40248 142.07786 652.1875 139.6875 L 638.28125 139.6875 z M 702.84375 139.6875 C 703.89636 140.38929 704.72124 141.36582 705.09375 142.71875 C 706.80373 145.76446 704.44145 149.56813 701.53125 150.78125 C 694.58808 151.51687 687.58753 151.15523 680.625 151.1875 C 679.20115 157.82227 677.88142 164.46476 676.59375 171.125 L 722.25 171.125 L 722.25 139.6875 L 702.84375 139.6875 z M 335.90625 152.5625 C 332.10356 152.6109 328.29906 152.96488 324.5 153.1875 C 323.51847 159.19678 322.04936 165.12836 321 171.125 L 341 171.125 C 342.14838 170.38262 343.2434 169.51908 344.25 168.5 C 347.4054 165.28007 346.98304 160.47352 347.125 156.34375 C 344.69231 155.05965 342.50634 153.06379 339.71875 152.625 C 338.44917 152.55725 337.17381 152.54637 335.90625 152.5625 z M 383.34375 156.0625 C 382.27905 160.71494 381.10554 165.35097 380.53125 170.09375 C 380.47244 170.43887 380.40331 170.78003 380.34375 171.125 L 395.65625 171.125 C 392.90794 165.21165 388.53791 160.01724 383.34375 156.0625 z "
         style="fill:#0dbfbf;fill-opacity:1;stroke:none" />
      <path
         id="rect4008"
         d="M 53.53125 168.9375 L 53.53125 200.375 L 76.84375 200.375 C 78.818427 189.88747 80.855467 179.41655 82.875 168.9375 L 53.53125 168.9375 z M 108.34375 168.9375 C 109.90322 175.17322 111.5618 181.39427 113.71875 187.46875 C 115.25049 191.78141 116.79883 196.08613 118.40625 200.375 L 127.1875 200.375 C 129.18097 189.90276 131.15805 179.40933 133.15625 168.9375 L 108.34375 168.9375 z M 146.59375 168.9375 C 145.10052 177.02403 143.71034 185.13892 141.875 193.15625 C 141.49606 195.57297 141.09164 197.96886 140.65625 200.375 L 158.53125 200.375 L 157.90625 199.75 C 156.69017 198.51627 156.18479 196.618 156.625 194.9375 L 163.65625 168.9375 L 146.59375 168.9375 z M 287.1875 168.9375 L 278.6875 200.375 L 302 200.375 C 303.98156 191.79227 305.90081 183.1997 307.09375 174.46875 C 307.4082 172.62265 307.75896 170.78096 308.09375 168.9375 L 287.1875 168.9375 z M 321.4375 168.9375 C 321.03039 171.07879 320.63161 173.21235 320.34375 175.375 C 328.50447 175.40648 337.5443 174.84065 343.78125 168.9375 L 321.4375 168.9375 z M 359.75 168.9375 C 357.78558 173.9903 353.83986 178.30947 349.46875 181.4375 C 347.88783 183.01197 345.3348 183.92802 344.625 186.21875 C 344.12716 190.91947 344.08304 195.64963 344.28125 200.375 L 361.4375 200.375 C 361.89466 197.80662 362.32971 195.23537 362.71875 192.65625 C 364.49054 184.78936 365.92994 176.86726 367.40625 168.9375 L 359.75 168.9375 z M 380.6875 168.9375 C 380.63343 169.32072 380.57781 169.7092 380.53125 170.09375 C 378.80513 180.22355 376.76302 190.29683 374.78125 200.375 L 398.1875 200.375 C 400.04626 194.57188 399.1234 188.10835 398.65625 182.09375 C 398.2235 177.43444 396.75191 172.98824 394.53125 168.9375 L 380.6875 168.9375 z M 409.1875 168.9375 C 412.16811 176.74806 412.07792 185.50861 412.15625 193.75 C 412.23899 195.95711 412.09346 198.1869 411.71875 200.375 L 418.34375 200.375 C 420.31744 189.89508 422.30405 179.41233 424.3125 168.9375 L 409.1875 168.9375 z M 437.75 168.9375 C 435.67731 179.39745 433.74702 189.89347 431.78125 200.375 L 475.75 200.375 C 477.73039 189.89437 479.73709 179.41305 481.75 168.9375 L 437.75 168.9375 z M 495.1875 168.9375 C 493.23675 179.42232 491.21128 189.89529 489.21875 200.375 L 504.96875 200.375 C 505.26612 195.27934 506.11337 190.22087 507.4375 185.3125 C 508.76233 179.74938 510.50326 174.19895 512.84375 168.9375 L 495.1875 168.9375 z M 528.4375 168.9375 C 524.62334 174.99157 522.28746 181.97025 520.75 188.9375 C 519.81084 192.69415 519.18998 196.523 518.84375 200.375 L 577.4375 200.375 C 579.40658 189.88783 581.45877 179.41787 583.46875 168.9375 L 528.4375 168.9375 z M 596.9375 168.9375 C 596.85621 169.44973 596.76728 169.95609 596.6875 170.46875 C 605.21805 170.49456 613.73779 170.50746 622.28125 170.46875 C 622.34505 169.9571 622.43081 169.44834 622.5 168.9375 L 596.9375 168.9375 z M 635.75 168.9375 C 633.66761 179.40417 631.71372 189.88684 629.75 200.375 L 657.625 200.375 C 659.59143 189.89274 661.55219 179.40636 663.59375 168.9375 L 635.75 168.9375 z M 677 168.9375 C 674.96011 179.40205 673.04199 189.89812 671.0625 200.375 L 722.25 200.375 L 722.25 168.9375 L 677 168.9375 z M 95.65625 172.875 C 93.729743 182.01968 91.980386 191.18679 90.28125 200.375 L 104.40625 200.375 C 101.05869 191.3433 97.921338 182.24898 95.65625 172.875 z M 607 183.40625 C 602.71424 183.40303 598.41286 183.41169 594.125 183.4375 C 593.05447 189.08108 592.00127 194.73274 590.9375 200.375 L 616.25 200.375 C 617.20042 194.67395 618.22914 188.99522 619.84375 183.4375 C 615.55589 183.42459 611.28576 183.40947 607 183.40625 z M 331.3125 189.21875 C 326.86009 189.21875 322.4147 189.21128 317.96875 189.25 C 317.13337 192.95445 316.31145 196.66612 315.5 200.375 L 331.46875 200.375 C 331.34215 196.63694 331.3125 192.8985 331.3125 189.21875 z "
         style="fill:#12c00f;fill-opacity:1;stroke:none" />
      <path
         id="rect4010"
         d="M 53.53125 198.9375 L 53.53125 230.375 L 75.25 230.375 C 74.502318 229.91322 73.861348 229.29817 73.40625 228.5 C 71.263934 225.12521 73.235807 221.01675 73.6875 217.5 C 74.801358 211.30572 75.957319 205.12203 77.125 198.9375 L 53.53125 198.9375 z M 90.53125 198.9375 C 89.057664 206.87569 87.639836 214.83648 86.1875 222.78125 C 85.793882 224.88485 85.344202 227.17148 83.9375 228.875 C 83.49905 229.49282 82.943931 229.9886 82.3125 230.375 L 118.0625 230.375 C 115.1306 226.8089 112.78662 222.74583 111.1875 218.40625 C 108.7822 211.91222 106.26693 205.44478 103.875 198.9375 L 90.53125 198.9375 z M 117.875 198.9375 C 119.91826 204.4368 122.0465 209.91417 124.34375 215.3125 C 125.36138 209.84676 126.39694 204.39621 127.4375 198.9375 L 117.875 198.9375 z M 140.90625 198.9375 C 139.49665 206.89066 137.8296 214.80882 136.5 222.78125 C 136.27909 225.59437 134.97742 228.85888 132.5625 230.375 L 188.78125 230.375 L 157.90625 199.75 C 157.67104 199.50163 157.46125 199.2289 157.28125 198.9375 L 140.90625 198.9375 z M 279.09375 198.9375 L 271.9375 225.40625 C 271.48111 227.09353 270.08549 228.48914 268.40625 228.9375 L 263.0625 230.375 L 301.5625 230.375 C 298.56175 229.3578 296.35748 225.95554 297.09375 222.71875 C 298.61791 214.75355 300.52665 206.85424 302.34375 198.9375 L 279.09375 198.9375 z M 315.84375 198.9375 C 314.10646 206.85295 312.38807 214.76678 310.6875 222.6875 C 310.07449 225.76546 308.49915 229.21553 305.34375 230.3125 C 305.27196 230.33982 305.19681 230.35086 305.125 230.375 L 339.6875 230.375 C 337.93333 229.87682 336.4529 228.67363 335.9375 226.65625 C 332.56508 217.86781 331.65341 208.37177 331.40625 198.9375 L 315.84375 198.9375 z M 344.25 198.9375 C 344.31531 201.06205 344.40549 203.19824 344.5625 205.3125 C 345.47234 212.21695 347.75277 218.96206 348.0625 225.9375 C 347.66774 228.27936 345.77364 229.7966 343.59375 230.375 L 360 230.375 C 358.11704 229.11135 356.7968 227.21198 356.96875 224.71875 C 358.38108 216.10458 360.18893 207.54694 361.6875 198.9375 L 344.25 198.9375 z M 375.0625 198.9375 C 373.79017 205.38743 372.52925 211.83129 371.40625 218.3125 C 376.34261 217.10584 381.26165 215.85877 386.0625 214.1875 C 390.79883 212.46461 394.72992 208.74176 396.5625 204.03125 C 397.51925 202.40129 398.16986 200.69985 398.59375 198.9375 L 375.0625 198.9375 z M 411.90625 198.9375 C 410.25418 211.96456 400.79914 224.25938 387.90625 227.59375 C 384.48775 228.63205 381.0203 229.5899 377.53125 230.375 L 415.75 230.375 C 414.32081 229.028 413.56994 226.87734 413.78125 224.9375 C 415.34782 216.26279 416.95976 207.59923 418.59375 198.9375 L 411.90625 198.9375 z M 432.03125 198.9375 C 430.82242 205.3928 429.61466 211.84 428.34375 218.28125 C 439.04888 218.35223 449.76362 217.96303 460.46875 218.34375 C 463.19827 218.56314 466.41529 219.26505 467.71875 221.96875 C 469.22513 224.89529 468.21761 228.532 465.75 230.375 L 473.1875 230.375 C 471.74999 229.0066 470.94264 226.90379 471.1875 224.9375 C 472.75407 216.26279 474.36045 207.59923 476 198.9375 L 432.03125 198.9375 z M 489.5 198.9375 C 487.94496 207.09626 486.39427 215.25413 484.96875 223.4375 C 484.75823 225.8429 483.74553 228.66998 481.90625 230.375 L 523.1875 230.375 C 520.42819 230.0653 517.75346 229.38705 515.28125 228 C 510.60945 225.90285 507.74667 221.17079 506.0625 216.53125 C 504.86168 210.76225 504.59618 204.81845 505.0625 198.9375 L 489.5 198.9375 z M 518.96875 198.9375 C 518.59623 202.3624 518.45963 205.80247 518.53125 209.25 C 518.54416 212.54736 521.05349 215.52462 524.125 216.53125 C 527.36429 217.1249 530.64659 217.22548 533.9375 216.8125 C 538.51251 215.81233 541.93219 211.57919 546.875 211.84375 C 550.36595 212.97298 553.3065 216.81787 551.90625 220.625 C 548.56372 226.8132 541.49617 230.11044 534.65625 230.375 L 577.53125 230.375 C 576.27468 230.04176 575.12773 229.37014 574.375 228.21875 C 571.74873 224.66973 574.0731 220.07547 574.53125 216.28125 C 575.56446 210.49013 576.63029 204.71596 577.71875 198.9375 L 518.96875 198.9375 z M 591.1875 198.9375 C 589.72859 206.6621 588.28686 214.38276 586.90625 222.125 C 586.49327 225.09972 585.4136 228.47069 582.59375 230 C 582.2042 230.1617 581.79661 230.27252 581.375 230.375 L 614.6875 230.375 C 614.21894 230.07006 613.78703 229.68456 613.40625 229.21875 C 610.26375 225.51486 612.85979 220.41 613.34375 216.3125 C 614.65183 210.57395 615.51655 204.7403 616.5 198.9375 L 591.1875 198.9375 z M 630.03125 198.9375 C 628.34548 207.93913 626.65365 216.94871 624.90625 225.9375 C 624.54731 227.91543 623.23344 229.45764 621.5625 230.375 L 656.03125 230.375 C 655.66373 230.14333 655.31001 229.88422 655 229.5625 C 653.50941 228.09772 652.93483 225.91407 653.21875 223.875 C 654.77336 215.56307 656.34574 207.24831 657.90625 198.9375 L 630.03125 198.9375 z M 671.3125 198.9375 C 670.48439 203.33252 669.67306 207.7357 668.8125 212.125 C 667.74134 217.31302 667.57337 222.83401 665.4375 227.71875 C 664.92157 228.86569 664.05102 229.76369 663 230.375 L 722.25 230.375 L 722.25 198.9375 L 671.3125 198.9375 z "
         style="fill:#1113c0;fill-opacity:1;stroke:none" />
    </g>
  </g>
</svg>
