<?xml version="1.0" encoding="UTF-8" standalone="no"?>
<!-- Created with Inkscape (http://www.inkscape.org/) -->

<svg
   xmlns:dc="http://purl.org/dc/elements/1.1/"
   xmlns:cc="http://creativecommons.org/ns#"
   xmlns:rdf="http://www.w3.org/1999/02/22-rdf-syntax-ns#"
   xmlns:svg="http://www.w3.org/2000/svg"
   xmlns="http://www.w3.org/2000/svg"
   xmlns:sodipodi="http://sodipodi.sourceforge.net/DTD/sodipodi-0.dtd"
   xmlns:inkscape="http://www.inkscape.org/namespaces/inkscape"
   width="10"
   height="10"
   id="svg3044"
   version="1.1"
   inkscape:version="0.48.2 r9819"
   sodipodi:docname="Neues Dokument 2">
  <defs
     id="defs3046" />
  <sodipodi:namedview
     id="base"
     pagecolor="#ffffff"
     bordercolor="#666666"
     borderopacity="1.0"
     inkscape:pageopacity="0.0"
     inkscape:pageshadow="2"
     inkscape:zoom="0.35"
     inkscape:cx="350"
     inkscape:cy="520"
     inkscape:document-units="px"
     inkscape:current-layer="layer1"
     showgrid="false"
     inkscape:window-width="1524"
     inkscape:window-height="878"
     inkscape:window-x="68"
     inkscape:window-y="-8"
     inkscape:window-maximized="1" />
  <metadata
     id="metadata3049">
    <rdf:RDF>
      <cc:Work
         rdf:about="">
        <dc:format>image/svg+xml</dc:format>
        <dc:type
           rdf:resource="http://purl.org/dc/dcmitype/StillImage" />
        <dc:title></dc:title>
      </cc:Work>
    </rdf:RDF>
  </metadata>
  <g
     inkscape:label="Ebene 1"
     inkscape:groupmode="layer"
     id="layer1"
     transform="translate(0,-1042.3622)">
    <g
       transform="translate(-53.53125,807.39345)"
       id="g3023">
      <path
         inkscape:connector-curvature="0"
         id="path4030"
         d="M 237.3125,124.75 181.90625,139.625 167.0625,194.71875 207.625,234.96875 263.03125,220.0625 277.875,165 237.3125,124.75 z M 221.59375,160.96875 C 232.15474,160.96875 240.75,169.59526 240.75,180.15625 240.75,190.71723 232.15474,199.3125 221.59375,199.3125 211.03277,199.3125 202.46875,190.71723 202.46875,180.15625 202.46875,169.59526 211.03277,160.96875 221.59375,160.96875 z M 221.59375,163.96875 C 212.65408,163.96875 205.4375,171.21657 205.4375,180.15625 205.4375,189.09592 212.65408,196.3125 221.59375,196.3125 230.53342,196.3125 237.75,189.09592 237.75,180.15625 237.75,171.21657 230.53342,163.96875 221.59375,163.96875 z"
         style="fill:#c1120f;fill-opacity:1;stroke:none" />
      <path
         inkscape:connector-curvature="0"
         id="rect4006"
         d="M 53.53125,139.6875 53.53125,171.125 82.4375,171.125 C 83.469707,165.77348 84.51358,160.41648 85.53125,155.0625 86.647577,150.04225 87.216189,144.6919 90.28125,140.375 90.516087,140.11145 90.785909,139.8973 91.0625,139.6875 L 53.53125,139.6875 z M 98.84375,139.6875 C 99.466836,140.15981 99.996158,140.76697 100.375,141.5 102.65282,144.21016 102.85104,147.87281 103.8125,151.125 105.662,157.75916 107.20564,164.45783 108.90625,171.125 L 132.75,171.125 C 133.6802,166.25868 134.61597,161.40258 135.53125,156.53125 136.80244,151.00769 137.36838,145.13373 140.5625,140.28125 140.80901,140.06728 141.07437,139.87595 141.34375,139.6875 L 98.84375,139.6875 z M 149.125,139.6875 C 152.16318,141.45554 151.38038,145.63673 150.90625,148.625 148.9982,156.0579 147.5677,163.57892 146.1875,171.125 L 163.0625,171.125 171.53125,139.6875 149.125,139.6875 z M 266.625,139.6875 287.03125,159.9375 C 288.24733,161.17123 288.75271,163.0695 288.3125,164.75 L 286.59375,171.125 307.6875,171.125 C 309.1033,163.15582 310.69002,155.20957 312.15625,147.25 312.52758,144.49279 313.87536,141.51532 316.0625,139.6875 L 266.625,139.6875 z M 351.9375,139.6875 C 352.80358,140.2985 353.59432,141.0337 354.21875,141.90625 359.16156,147.35883 360.86246,154.92473 361.0625,162.09375 361.07289,165.31817 360.19569,168.35215 358.75,171.125 L 367,171.125 C 368.52682,162.90308 370.05645,154.66663 372,146.53125 372.78429,144.15925 373.68447,141.27688 375.65625,139.6875 L 351.9375,139.6875 z M 383.6875,139.6875 C 384.70329,140.36539 385.68336,141.14267 386.6875,141.6875 395.13417,148.06928 403.04456,155.69484 407.59375,165.40625 408.57925,167.24906 409.33732,169.15996 409.9375,171.125 L 423.90625,171.125 C 424.85887,166.15671 425.80062,161.18831 426.75,156.21875 427.9244,151.03718 428.46314,145.46531 431.625,141 432.12612,140.43385 432.73559,139.99756 433.40625,139.6875 L 383.6875,139.6875 z M 439.125,139.6875 C 440.0887,140.11703 440.94908,140.7815 441.5625,141.65625 442.69173,143.46302 442.32301,145.77988 442.1875,147.8125 440.44148,155.55619 438.8414,163.33514 437.3125,171.125 L 481.3125,171.125 C 482.26764,166.15562 483.23791,161.1894 484.1875,156.21875 485.28447,151.46306 485.79491,146.42798 488.34375,142.15625 488.83739,140.99987 489.79148,140.18804 490.90625,139.6875 L 439.125,139.6875 z M 496.46875,139.6875 C 497.93911,140.31406 499.1513,141.42031 499.5625,143 500.37554,149.33016 497.56913,155.33217 496.5625,161.46875 495.98072,164.68815 495.38361,167.90905 494.78125,171.125 L 511.90625,171.125 C 514.76801,164.1049 518.6287,157.52728 523.96875,152.0625 528.71153,147.33263 533.65841,142.00055 540.75,141.1875 543.28593,140.81485 545.94227,140.57943 548.59375,140.59375 556.54819,140.6367 564.62337,142.71008 570.34375,148.40625 574.12506,153.13612 568.69475,160.36559 563.09375,158.875 558.36388,158.01033 554.57187,154.03844 549.5,154.40625 542.54393,153.1286 536.80538,158.48482 532.65625,163.34375 530.49363,165.72479 528.66767,168.34327 527.125,171.125 L 583.03125,171.125 C 584.03493,165.90106 585.05004,160.66782 586.03125,155.4375 587.26372,150.09461 587.77904,144.33247 591.03125,139.71875 591.04105,139.70756 591.05262,139.69859 591.0625,139.6875 L 496.46875,139.6875 z M 600.34375,139.6875 C 600.76897,140.13214 601.12774,140.65795 601.375,141.25 602.50424,146.06376 600.47778,150.74736 599.59375,155.40625 598.31611,160.36842 597.47474,165.40978 596.6875,170.46875 605.21805,170.49456 613.73779,170.50746 622.28125,170.46875 622.92652,165.29363 623.85242,160.16018 624.96875,155.0625 626.09798,150.02289 626.72025,144.68849 629.65625,140.28125 629.83814,140.06493 630.04664,139.86634 630.25,139.6875 L 600.34375,139.6875 z M 638.28125,139.6875 C 639.97469,140.93698 641.00721,142.9377 640.375,145.34375 639.65229,153.18386 636.6697,160.67824 635.84375,168.53125 635.67168,169.39482 635.51428,170.26114 635.34375,171.125 L 663.1875,171.125 C 664.46764,164.5348 665.76103,157.95586 667.09375,151.375 662.31225,150.73618 656.73946,152.39729 652.5,149.5 649.23508,147.35707 649.40248,142.07786 652.1875,139.6875 L 638.28125,139.6875 z M 702.84375,139.6875 C 703.89636,140.38929 704.72124,141.36582 705.09375,142.71875 706.80373,145.76446 704.44145,149.56813 701.53125,150.78125 694.58808,151.51687 687.58753,151.15523 680.625,151.1875 679.20115,157.82227 677.88142,164.46476 676.59375,171.125 L 722.25,171.125 722.25,139.6875 702.84375,139.6875 z M 335.90625,152.5625 C 332.10356,152.6109 328.29906,152.96488 324.5,153.1875 323.51847,159.19678 322.04936,165.12836 321,171.125 L 341,171.125 C 342.14838,170.38262 343.2434,169.51908 344.25,168.5 347.4054,165.28007 346.98304,160.47352 347.125,156.34375 344.69231,155.05965 342.50634,153.06379 339.71875,152.625 338.44917,152.55725 337.17381,152.54637 335.90625,152.5625 z M 383.34375,156.0625 C 382.27905,160.71494 381.10554,165.35097 380.53125,170.09375 380.47244,170.43887 380.40331,170.78003 380.34375,171.125 L 395.65625,171.125 C 392.90794,165.21165 388.53791,160.01724 383.34375,156.0625 z"
         style="fill:#0dbfbf;fill-opacity:1;stroke:none" />
      <path
         inkscape:connector-curvature="0"
         id="rect4008"
         d="M 53.53125,168.9375 53.53125,200.375 76.84375,200.375 C 78.818427,189.88747 80.855467,179.41655 82.875,168.9375 L 53.53125,168.9375 z M 108.34375,168.9375 C 109.90322,175.17322 111.5618,181.39427 113.71875,187.46875 115.25049,191.78141 116.79883,196.08613 118.40625,200.375 L 127.1875,200.375 C 129.18097,189.90276 131.15805,179.40933 133.15625,168.9375 L 108.34375,168.9375 z M 146.59375,168.9375 C 145.10052,177.02403 143.71034,185.13892 141.875,193.15625 141.49606,195.57297 141.09164,197.96886 140.65625,200.375 L 158.53125,200.375 157.90625,199.75 C 156.69017,198.51627 156.18479,196.618 156.625,194.9375 L 163.65625,168.9375 146.59375,168.9375 z M 287.1875,168.9375 278.6875,200.375 302,200.375 C 303.98156,191.79227 305.90081,183.1997 307.09375,174.46875 307.4082,172.62265 307.75896,170.78096 308.09375,168.9375 L 287.1875,168.9375 z M 321.4375,168.9375 C 321.03039,171.07879 320.63161,173.21235 320.34375,175.375 328.50447,175.40648 337.5443,174.84065 343.78125,168.9375 L 321.4375,168.9375 z M 359.75,168.9375 C 357.78558,173.9903 353.83986,178.30947 349.46875,181.4375 347.88783,183.01197 345.3348,183.92802 344.625,186.21875 344.12716,190.91947 344.08304,195.64963 344.28125,200.375 L 361.4375,200.375 C 361.89466,197.80662 362.32971,195.23537 362.71875,192.65625 364.49054,184.78936 365.92994,176.86726 367.40625,168.9375 L 359.75,168.9375 z M 380.6875,168.9375 C 380.63343,169.32072 380.57781,169.7092 380.53125,170.09375 378.80513,180.22355 376.76302,190.29683 374.78125,200.375 L 398.1875,200.375 C 400.04626,194.57188 399.1234,188.10835 398.65625,182.09375 398.2235,177.43444 396.75191,172.98824 394.53125,168.9375 L 380.6875,168.9375 z M 409.1875,168.9375 C 412.16811,176.74806 412.07792,185.50861 412.15625,193.75 412.23899,195.95711 412.09346,198.1869 411.71875,200.375 L 418.34375,200.375 C 420.31744,189.89508 422.30405,179.41233 424.3125,168.9375 L 409.1875,168.9375 z M 437.75,168.9375 C 435.67731,179.39745 433.74702,189.89347 431.78125,200.375 L 475.75,200.375 C 477.73039,189.89437 479.73709,179.41305 481.75,168.9375 L 437.75,168.9375 z M 495.1875,168.9375 C 493.23675,179.42232 491.21128,189.89529 489.21875,200.375 L 504.96875,200.375 C 505.26612,195.27934 506.11337,190.22087 507.4375,185.3125 508.76233,179.74938 510.50326,174.19895 512.84375,168.9375 L 495.1875,168.9375 z M 528.4375,168.9375 C 524.62334,174.99157 522.28746,181.97025 520.75,188.9375 519.81084,192.69415 519.18998,196.523 518.84375,200.375 L 577.4375,200.375 C 579.40658,189.88783 581.45877,179.41787 583.46875,168.9375 L 528.4375,168.9375 z M 596.9375,168.9375 C 596.85621,169.44973 596.76728,169.95609 596.6875,170.46875 605.21805,170.49456 613.73779,170.50746 622.28125,170.46875 622.34505,169.9571 622.43081,169.44834 622.5,168.9375 L 596.9375,168.9375 z M 635.75,168.9375 C 633.66761,179.40417 631.71372,189.88684 629.75,200.375 L 657.625,200.375 C 659.59143,189.89274 661.55219,179.40636 663.59375,168.9375 L 635.75,168.9375 z M 677,168.9375 C 674.96011,179.40205 673.04199,189.89812 671.0625,200.375 L 722.25,200.375 722.25,168.9375 677,168.9375 z M 95.65625,172.875 C 93.729743,182.01968 91.980386,191.18679 90.28125,200.375 L 104.40625,200.375 C 101.05869,191.3433 97.921338,182.24898 95.65625,172.875 z M 607,183.40625 C 602.71424,183.40303 598.41286,183.41169 594.125,183.4375 593.05447,189.08108 592.00127,194.73274 590.9375,200.375 L 616.25,200.375 C 617.20042,194.67395 618.22914,188.99522 619.84375,183.4375 615.55589,183.42459 611.28576,183.40947 607,183.40625 z M 331.3125,189.21875 C 326.86009,189.21875 322.4147,189.21128 317.96875,189.25 317.13337,192.95445 316.31145,196.66612 315.5,200.375 L 331.46875,200.375 C 331.34215,196.63694 331.3125,192.8985 331.3125,189.21875 z"
         style="fill:#12c00f;fill-opacity:1;stroke:none" />
      <path
         inkscape:connector-curvature="0"
         id="rect4010"
         d="M 53.53125,198.9375 53.53125,230.375 75.25,230.375 C 74.502318,229.91322 73.861348,229.29817 73.40625,228.5 71.263934,225.12521 73.235807,221.01675 73.6875,217.5 74.801358,211.30572 75.957319,205.12203 77.125,198.9375 L 53.53125,198.9375 z M 90.53125,198.9375 C 89.057664,206.87569 87.639836,214.83648 86.1875,222.78125 85.793882,224.88485 85.344202,227.17148 83.9375,228.875 83.49905,229.49282 82.943931,229.9886 82.3125,230.375 L 118.0625,230.375 C 115.1306,226.8089 112.78662,222.74583 111.1875,218.40625 108.7822,211.91222 106.26693,205.44478 103.875,198.9375 L 90.53125,198.9375 z M 117.875,198.9375 C 119.91826,204.4368 122.0465,209.91417 124.34375,215.3125 125.36138,209.84676 126.39694,204.39621 127.4375,198.9375 L 117.875,198.9375 z M 140.90625,198.9375 C 139.49665,206.89066 137.8296,214.80882 136.5,222.78125 136.27909,225.59437 134.97742,228.85888 132.5625,230.375 L 188.78125,230.375 157.90625,199.75 C 157.67104,199.50163 157.46125,199.2289 157.28125,198.9375 L 140.90625,198.9375 z M 279.09375,198.9375 271.9375,225.40625 C 271.48111,227.09353 270.08549,228.48914 268.40625,228.9375 L 263.0625,230.375 301.5625,230.375 C 298.56175,229.3578 296.35748,225.95554 297.09375,222.71875 298.61791,214.75355 300.52665,206.85424 302.34375,198.9375 L 279.09375,198.9375 z M 315.84375,198.9375 C 314.10646,206.85295 312.38807,214.76678 310.6875,222.6875 310.07449,225.76546 308.49915,229.21553 305.34375,230.3125 305.27196,230.33982 305.19681,230.35086 305.125,230.375 L 339.6875,230.375 C 337.93333,229.87682 336.4529,228.67363 335.9375,226.65625 332.56508,217.86781 331.65341,208.37177 331.40625,198.9375 L 315.84375,198.9375 z M 344.25,198.9375 C 344.31531,201.06205 344.40549,203.19824 344.5625,205.3125 345.47234,212.21695 347.75277,218.96206 348.0625,225.9375 347.66774,228.27936 345.77364,229.7966 343.59375,230.375 L 360,230.375 C 358.11704,229.11135 356.7968,227.21198 356.96875,224.71875 358.38108,216.10458 360.18893,207.54694 361.6875,198.9375 L 344.25,198.9375 z M 375.0625,198.9375 C 373.79017,205.38743 372.52925,211.83129 371.40625,218.3125 376.34261,217.10584 381.26165,215.85877 386.0625,214.1875 390.79883,212.46461 394.72992,208.74176 396.5625,204.03125 397.51925,202.40129 398.16986,200.69985 398.59375,198.9375 L 375.0625,198.9375 z M 411.90625,198.9375 C 410.25418,211.96456 400.79914,224.25938 387.90625,227.59375 384.48775,228.63205 381.0203,229.5899 377.53125,230.375 L 415.75,230.375 C 414.32081,229.028 413.56994,226.87734 413.78125,224.9375 415.34782,216.26279 416.95976,207.59923 418.59375,198.9375 L 411.90625,198.9375 z M 432.03125,198.9375 C 430.82242,205.3928 429.61466,211.84 428.34375,218.28125 439.04888,218.35223 449.76362,217.96303 460.46875,218.34375 463.19827,218.56314 466.41529,219.26505 467.71875,221.96875 469.22513,224.89529 468.21761,228.532 465.75,230.375 L 473.1875,230.375 C 471.74999,229.0066 470.94264,226.90379 471.1875,224.9375 472.75407,216.26279 474.36045,207.59923 476,198.9375 L 432.03125,198.9375 z M 489.5,198.9375 C 487.94496,207.09626 486.39427,215.25413 484.96875,223.4375 484.75823,225.8429 483.74553,228.66998 481.90625,230.375 L 523.1875,230.375 C 520.42819,230.0653 517.75346,229.38705 515.28125,228 510.60945,225.90285 507.74667,221.17079 506.0625,216.53125 504.86168,210.76225 504.59618,204.81845 505.0625,198.9375 L 489.5,198.9375 z M 518.96875,198.9375 C 518.59623,202.3624 518.45963,205.80247 518.53125,209.25 518.54416,212.54736 521.05349,215.52462 524.125,216.53125 527.36429,217.1249 530.64659,217.22548 533.9375,216.8125 538.51251,215.81233 541.93219,211.57919 546.875,211.84375 550.36595,212.97298 553.3065,216.81787 551.90625,220.625 548.56372,226.8132 541.49617,230.11044 534.65625,230.375 L 577.53125,230.375 C 576.27468,230.04176 575.12773,229.37014 574.375,228.21875 571.74873,224.66973 574.0731,220.07547 574.53125,216.28125 575.56446,210.49013 576.63029,204.71596 577.71875,198.9375 L 518.96875,198.9375 z M 591.1875,198.9375 C 589.72859,206.6621 588.28686,214.38276 586.90625,222.125 586.49327,225.09972 585.4136,228.47069 582.59375,230 582.2042,230.1617 581.79661,230.27252 581.375,230.375 L 614.6875,230.375 C 614.21894,230.07006 613.78703,229.68456 613.40625,229.21875 610.26375,225.51486 612.85979,220.41 613.34375,216.3125 614.65183,210.57395 615.51655,204.7403 616.5,198.9375 L 591.1875,198.9375 z M 630.03125,198.9375 C 628.34548,207.93913 626.65365,216.94871 624.90625,225.9375 624.54731,227.91543 623.23344,229.45764 621.5625,230.375 L 656.03125,230.375 C 655.66373,230.14333 655.31001,229.88422 655,229.5625 653.50941,228.09772 652.93483,225.91407 653.21875,223.875 654.77336,215.56307 656.34574,207.24831 657.90625,198.9375 L 630.03125,198.9375 z M 671.3125,198.9375 C 670.48439,203.33252 669.67306,207.7357 668.8125,212.125 667.74134,217.31302 667.57337,222.83401 665.4375,227.71875 664.92157,228.86569 664.05102,229.76369 663,230.375 L 722.25,230.375 722.25,198.9375 671.3125,198.9375 z"
         style="fill:#1113c0;fill-opacity:1;stroke:none" />
    </g>
  </g>
</svg>
